<svg width="56" height="56" viewBox="0 0 56 56" fill="none" xmlns="http://www.w3.org/2000/svg">
<path d="M54.4145 50.3478H1.7855C1.39274 50.3478 1 49.9551 1 49.5623V15.7855C1 15.3928 1.39274 15 1.7855 15H54.4145C54.8072 15 55.2 15.3928 55.2 15.7855V49.6605C55.2 50.0533 54.8072 50.3478 54.4145 50.3478Z" stroke="black" stroke-width="0.75" stroke-miterlimit="10" stroke-linecap="round"/>
<path d="M1 47.8932H55.0036" stroke="black" stroke-width="0.75" stroke-miterlimit="10" stroke-linecap="round"/>
<path d="M5.02571 50.7405L2.96375 54.3734V54.7662H3.84743C3.84743 54.7662 3.94563 54.7662 3.94563 54.668L6.69492 51.4278V50.7405" stroke="black" stroke-width="0.75" stroke-miterlimit="10" stroke-linecap="round"/>
<path d="M51.7632 50.7405L53.8251 54.3734V54.7662H52.9414C52.9414 54.7662 52.8432 54.7662 52.8432 54.668L50.094 51.4278V50.7405" stroke="black" stroke-width="0.75" stroke-miterlimit="10" stroke-linecap="round"/>
<path d="M52.9416 27.1755L34.7768 45.5367" stroke="black" stroke-width="0.75" stroke-miterlimit="10" stroke-linecap="round"/>
<path d="M52.9417 35.9142L43.3192 45.6349" stroke="black" stroke-width="0.75" stroke-miterlimit="10" stroke-linecap="round"/>
</svg>
