<!-- Generated by IcoMoon.io -->
<svg version="1.1" xmlns="http://www.w3.org/2000/svg" width="1024" height="1024" viewBox="0 0 1024 1024">
<title></title>
<g id="icomoon-ignore">
</g>
<path fill="#000" d="M298.667 469.333c-94.258 0-170.667-76.409-170.667-170.666s76.409-170.667 170.667-170.667c94.256 0 170.666 76.409 170.666 170.667 0 94.256-76.409 170.666-170.666 170.666zM298.667 384c47.127 0 85.333-38.205 85.333-85.333 0-47.129-38.205-85.334-85.333-85.334-47.129 0-85.334 38.205-85.334 85.334 0 47.127 38.205 85.333 85.334 85.333z"></path>
<path fill="#000" d="M256 533.333c0-23.564 19.102-42.666 42.667-42.666 23.564 0 42.666 19.102 42.666 42.666v85.334c0 23.564-19.102 42.666-42.666 42.666s-42.667-19.102-42.667-42.666v-85.334z"></path>
<path fill="#000" d="M597.333 490.667c-23.564 0-42.666 19.102-42.666 42.666v85.334c0 23.564 19.102 42.666 42.666 42.666 23.565 0 42.667-19.102 42.667-42.666v-85.334c0-23.564-19.102-42.666-42.667-42.666z"></path>
<path fill="#000" d="M554.667 170.667c0-23.565 19.102-42.667 42.666-42.667s42.667 19.102 42.667 42.667v256c0 23.564-19.102 42.666-42.667 42.666-23.564 0-42.666-19.102-42.666-42.666v-256z"></path>
<path fill="#000" d="M320 896v-213.333h-42.667v213.333h42.667z"></path>
<path fill="#000" d="M618.667 682.667v213.333h-42.667v-213.333h42.667z"></path>
<path fill="#000" d="M768 170.667h-85.333v256h85.333c70.693 0 128-57.307 128-128s-57.307-128-128-128z"></path>
</svg>
