<!-- Generated by IcoMoon.io -->
<svg version="1.1" xmlns="http://www.w3.org/2000/svg" width="1024" height="1024" viewBox="0 0 1024 1024">
<title></title>
<g id="icomoon-ignore">
</g>
<path fill="#000" d="M291.384 120.716c0.8-0.8 1.886-1.25 3.016-1.25h469.333c1.132 0 2.218 0.45 3.018 1.25s1.249 1.885 1.249 3.017v768c0 1.132-0.449 2.216-1.249 3.016s-1.886 1.251-3.018 1.251h-473.6v-772.267c0-1.132 0.451-2.217 1.251-3.017zM294.4 42.666c-21.5 0-42.12 8.541-57.322 23.744-15.203 15.203-23.745 35.823-23.745 57.323v849.067h550.4c21.501 0 42.12-8.542 57.324-23.745s23.744-35.822 23.744-57.322v-768c0-21.5-8.54-42.12-23.744-57.323s-35.822-23.744-57.324-23.744h-469.333zM369.063 230.4c17.673 0 32-14.326 32-32 0-17.673-14.327-32-32-32s-32 14.327-32 32c0 17.674 14.327 32 32 32z"></path>
</svg>
