<!-- Generated by IcoMoon.io -->
<svg version="1.1" xmlns="http://www.w3.org/2000/svg" width="1024" height="1024" viewBox="0 0 1024 1024">
<title></title>
<g id="icomoon-ignore">
</g>
<path fill="#000" d="M896 174.937h-768c-21.493 0.020-42.099 8.568-57.297 23.766s-23.745 35.805-23.766 57.297v635.75h849.062c21.497-0.025 42.107-8.575 57.307-23.777s23.751-35.809 23.776-57.306v-554.667c-0.025-21.495-8.577-42.102-23.779-57.299-15.201-15.198-35.809-23.744-57.305-23.764zM128 251.728h768c1.129 0.006 2.21 0.459 3.006 1.26s1.243 1.883 1.243 3.012v89.604h-776.521v-89.604c0.002-1.132 0.452-2.218 1.253-3.018 0.801-0.802 1.886-1.252 3.018-1.254zM896 814.917h-772.271v-392.521h776.521v388.272c0.004 0.559-0.101 1.113-0.313 1.631s-0.525 0.989-0.922 1.384c-0.395 0.395-0.866 0.708-1.382 0.92-0.518 0.212-1.074 0.319-1.633 0.315zM213.333 644.25h213.334v76.834h-213.334v-76.834z"></path>
</svg>
