<!-- Generated by IcoMoon.io -->
<svg version="1.1" xmlns="http://www.w3.org/2000/svg" width="1024" height="1024" viewBox="0 0 1024 1024">
<title></title>
<g id="icomoon-ignore">
</g>
<path fill="#000" d="M447.402 716.001l-4.459-0.086c-27.847-1.014-54.161-13.008-73.196-33.36-19.033-20.353-29.238-47.411-28.387-75.264 0.73-28.916 12.711-56.406 33.396-76.624l197.247-197.249c-3.256-14.608-4.864-29.535-4.791-44.502 0.091-26.173 5.37-52.069 15.533-76.19s25.009-45.985 43.678-64.331c37.764-36.864 88.434-57.519 141.208-57.562 16.399 0.006 32.733 2.057 48.624 6.104l53.625 13.604-97.957 141.398c-0.566 0.818-0.825 1.808-0.734 2.798s0.528 1.916 1.233 2.617l28.167 28.167c0.711 0.72 1.654 1.163 2.661 1.251 1.008 0.088 2.014-0.186 2.839-0.772l140.5-98.667 13.834 53.792c8.454 33.011 8.309 67.637-0.418 100.576s-25.748 63.093-49.437 87.587c-23.69 24.494-53.26 42.512-85.889 52.334s-67.231 11.121-100.506 3.774l-197.688 197.647c-20.953 21.031-49.398 32.886-79.085 32.958zM733.839 172.022c-25.701 7.12-48.377 22.433-64.582 43.614-16.207 21.181-25.057 47.072-25.209 73.741-0.060 9.955 1.087 19.882 3.416 29.561l9.418 38.186-228.062 228.084c-6.6 6.372-10.439 15.079-10.688 24.25-0.257 7.621 2.525 15.034 7.733 20.606s12.415 8.846 20.038 9.102h0.104c4.807 0.129 9.59-0.717 14.062-2.485s8.539-4.424 11.959-7.806l227.979-227.893 38.042 8.789c30.802 7.471 63.299 2.753 90.707-13.167s47.604-41.811 56.376-72.27l-34.917 24.52c-15.617 10.979-34.61 16.093-53.628 14.438s-36.842-9.969-50.33-23.48l-28.167-28.166c-13.414-13.42-21.696-31.119-23.401-50.018-1.706-18.897 3.272-37.794 14.068-53.399l25.084-36.209zM768.13 853.377c39.338-39.143 70.52-85.701 91.74-136.979s32.059-106.256 31.886-161.75l-76.834 0.019c0.026 45.387-8.888 90.333-26.235 132.273s-42.786 80.052-74.863 112.159c-32.078 32.107-70.167 57.58-112.091 74.964s-86.862 26.34-132.248 26.355l-9.563-0.126c-87.912-3.714-171.232-40.277-233.485-102.461s-98.911-145.464-102.723-233.371c-2.341-86.666 27.927-171.053 84.818-236.474s136.261-107.107 222.411-116.818v74.71h76.791v-153.606l-50.52 0.166c-111.995 3.324-218.096 50.95-295.011 132.424s-118.361 190.138-115.239 302.139c4.569 107.309 49.256 208.993 125.217 284.927s177.661 120.585 284.97 125.115l12.354 0.209c55.495 0.129 110.465-10.755 161.725-32.018s97.791-52.486 136.9-91.857z"></path>
</svg>
