<svg width="81" height="80" viewBox="0 0 81 80" fill="none" xmlns="http://www.w3.org/2000/svg">
<circle cx="40.8" cy="40" r="34.3" stroke="black" stroke-width="4.6"/>
<mask id="mask0_458_21471" style="mask-type:alpha" maskUnits="userSpaceOnUse" x="39" y="28" width="18" height="25">
<rect x="39.468" y="28.5977" width="17.3329" height="23.9994" fill="#D9D9D9"/>
</mask>
<g mask="url(#mask0_458_21471)">
<path fill-rule="evenodd" clip-rule="evenodd" d="M28.2574 35.0662C28.6253 34.8912 28.9059 34.7163 29.0995 34.5413V50.9307H33.1357V29.9336H29.8255C29.7093 30.303 29.4577 30.6675 29.0705 31.0272C28.6833 31.3869 28.2381 31.7125 27.7348 32.0041C27.2895 32.2569 26.7717 32.5048 26.1813 32.7478C25.5908 32.9908 25.1311 33.1318 24.802 33.1706L25.6731 36.0286C25.9635 35.9508 26.6023 35.737 27.5896 35.387C27.667 35.3481 27.8896 35.2412 28.2574 35.0662ZM54.2178 47.9855C54.9534 46.9162 55.3212 45.6331 55.3212 44.1361C55.3212 42.6585 54.9921 41.4142 54.3339 40.4032C53.6758 39.3923 52.8095 38.6438 51.7351 38.1577C50.6607 37.6717 49.5041 37.4287 48.2651 37.4287C46.9488 37.4287 45.9325 37.6231 45.2162 38.0119L46.0583 33.2001H54.7405V29.9922H43.0965L41.2962 40.4907L43.7644 41.5406C44.0741 41.2101 44.5096 40.9185 45.071 40.6657C45.6324 40.413 46.2906 40.2866 47.0456 40.2866C48.2458 40.2866 49.2621 40.6122 50.0945 41.2635C50.9269 41.9148 51.3431 42.8626 51.3431 44.1069C51.3431 45.3512 50.9366 46.3038 50.1235 46.9648C49.3105 47.6259 48.2942 47.9564 47.0746 47.9564C46.0486 47.9564 45.1001 47.7231 44.229 47.2565C43.3578 46.7899 42.6513 46.2552 42.1092 45.6525L39.9895 48.1313C40.7445 48.9285 41.7172 49.6478 42.9078 50.2894C44.0983 50.931 45.584 51.2517 47.365 51.2517C48.7588 51.2517 50.0654 50.9747 51.285 50.4206C52.5046 49.8665 53.4822 49.0548 54.2178 47.9855Z" fill="black"/>
</g>
<mask id="mask1_458_21471" style="mask-type:alpha" maskUnits="userSpaceOnUse" x="24" y="28" width="13" height="25">
<rect x="24.8" y="28.5977" width="11.9997" height="23.9994" fill="#D9D9D9"/>
</mask>
<g mask="url(#mask1_458_21471)">
<path fill-rule="evenodd" clip-rule="evenodd" d="M29.5875 35.0662C29.9553 34.8912 30.236 34.7163 30.4296 34.5413V50.9307H34.4658V29.9336H31.1555C31.0394 30.303 30.7877 30.6675 30.4006 31.0272C30.0134 31.3869 29.5682 31.7125 29.0648 32.0041C28.6196 32.2569 28.1018 32.5048 27.5114 32.7478C26.9209 32.9908 26.4612 33.1318 26.1321 33.1706L27.0032 36.0286C27.2936 35.9508 27.9324 35.737 28.9197 35.387C28.9971 35.3481 29.2197 35.2412 29.5875 35.0662ZM55.5479 47.9855C56.2835 46.9162 56.6513 45.6331 56.6513 44.1361C56.6513 42.6585 56.3222 41.4142 55.664 40.4032C55.0058 39.3923 54.1396 38.6438 53.0652 38.1577C51.9908 37.6717 50.8342 37.4287 49.5952 37.4287C48.2789 37.4287 47.2626 37.6231 46.5463 38.0119L47.3884 33.2001H56.0705V29.9922H44.4266L42.6263 40.4907L45.0944 41.5406C45.4042 41.2101 45.8397 40.9185 46.4011 40.6657C46.9625 40.413 47.6207 40.2866 48.3757 40.2866C49.5759 40.2866 50.5922 40.6122 51.4246 41.2635C52.257 41.9148 52.6732 42.8626 52.6732 44.1069C52.6732 45.3512 52.2667 46.3038 51.4536 46.9648C50.6406 47.6259 49.6243 47.9564 48.4047 47.9564C47.3787 47.9564 46.4302 47.7231 45.559 47.2565C44.6879 46.7899 43.9813 46.2552 43.4393 45.6525L41.3196 48.1313C42.0746 48.9285 43.0473 49.6478 44.2378 50.2894C45.4284 50.931 46.9141 51.2517 48.6951 51.2517C50.0889 51.2517 51.3955 50.9747 52.6151 50.4206C53.8347 49.8665 54.8123 49.0548 55.5479 47.9855Z" fill="black"/>
</g>
</svg>
