<!-- Generated by IcoMoon.io -->
<svg version="1.1" xmlns="http://www.w3.org/2000/svg" width="1024" height="1024" viewBox="0 0 1024 1024">
<title></title>
<g id="icomoon-ignore">
</g>
<path fill="#000" d="M220.978 94.213l-3.521 0.704c-32.358 6.472-65.463 28.039-73.778 69.045l-45.304 212.926c-11.21 50.673-0.547 106.296 43.602 144.137l0.897 0.769 0.945 0.708c11.327 8.495 26.298 18.628 44.481 25.702v312.838c0 21.854 7.443 42.884 23.1 58.542 15.658 15.657 36.688 23.1 58.542 23.1h136.129c21.854 0 42.884-7.443 58.542-23.1 15.657-15.658 23.1-36.688 23.1-58.542v-104.366c0-5.372 1.633-7.029 1.856-7.253s1.883-1.856 7.254-1.856h36.301c5.372 0 7.029 1.633 7.253 1.856s1.856 1.881 1.856 7.253v104.366c0 21.854 7.443 42.884 23.101 58.542s36.687 23.1 58.542 23.1h136.128c21.855 0 42.885-7.443 58.542-23.1s23.101-36.688 23.101-58.542v-314.451c19.283-5.869 36.772-16.172 51.914-31.013 42.663-37.294 54.058-92.21 42.388-139.419l-49.742-217.050c-8.376-40.56-42.338-64.897-80.824-64.897h-584.407zM769.116 548.966v312.076c0 5.372-1.633 7.029-1.856 7.253s-1.883 1.856-7.254 1.856h-136.128c-5.372 0-7.030-1.633-7.254-1.856s-1.856-1.881-1.856-7.253v-104.366c0-21.854-7.443-42.884-23.1-58.542s-36.688-23.1-58.542-23.1h-36.301c-21.855 0-42.885 7.443-58.542 23.1-15.658 15.658-23.101 36.688-23.101 58.542v104.366c0 5.372-1.633 7.029-1.856 7.253s-1.881 1.856-7.253 1.856h-136.129c-5.372 0-7.029-1.633-7.253-1.856s-1.856-1.881-1.856-7.253v-306.605c26.516-5.009 50.662-17.155 70.018-34.139 25.171 19.314 57.887 32.145 93.373 32.145 36.623 0 67.669-13.55 91.348-34.528 25.496 21.372 58.797 34.528 94.694 34.528 36.179 0 69.718-13.362 95.291-35.030 17.894 15.163 39.689 26.257 63.56 31.552zM218.677 171.628c1.965-1.685 5.206-3.556 10.025-4.883h576.683c4.030 0 6.147 1.154 7.088 1.893 0.81 0.638 2.067 1.957 2.725 5.255l0.099 0.496 50.194 218.993c6.232 24.926-0.293 50.986-20.182 68.035l-1.058 0.907-0.985 0.985c-10.906 10.904-24.165 16.603-42.42 16.603-27.579 0-51.987-15.5-63.803-36.178l-31.488-55.104-31.488 55.104c-11.815 20.677-36.222 36.178-63.803 36.178-27.579 0-51.986-15.5-63.801-36.178l-31.488-55.104-31.489 55.104c-12.725 22.269-33.394 36.178-59.263 36.178-28.021 0-53.298-16.039-65.115-33.764l-32.55-48.826-29.114 50.95c-11.815 20.677-36.222 36.178-63.803 36.178-14.708 0-29.090-7.209-45.287-19.215-18.716-16.595-25.917-42.266-19.137-72.78l0.070-0.32 45.466-213.703c0.617-3.091 1.903-5.073 3.922-6.802z"></path>
</svg>
