<!-- Generated by IcoMoon.io -->
<svg version="1.1" xmlns="http://www.w3.org/2000/svg" width="1024" height="1024" viewBox="0 0 1024 1024">
<title></title>
<g id="icomoon-ignore">
</g>
<path fill="#000" d="M128.004 204.8c-2.356 0-4.267 1.91-4.267 4.267v469.333c0 2.357 1.91 4.267 4.267 4.267h768c2.357 0 4.266-1.91 4.266-4.267v-469.333c0-2.357-1.909-4.267-4.266-4.267h-768zM46.938 209.067c0-44.772 36.295-81.067 81.067-81.067h768c44.772 0 81.066 36.295 81.066 81.067v469.333c0 44.772-36.293 81.067-81.066 81.067h-106.367l93.867 93.866h-90.51l-93.867-93.866h-368.982l-93.866 93.866h-90.51l93.867-93.866h-111.632c-44.772 0-81.067-36.295-81.067-81.067v-469.333z"></path>
</svg>
